<?xml version="1.0" encoding="utf-8"?>
<!-- Generated by IcoMoon.io -->
<!DOCTYPE svg PUBLIC "-//W3C//DTD SVG 1.1//EN" "http://www.w3.org/Graphics/SVG/1.1/DTD/svg11.dtd">
<svg version="1.1" xmlns="http://www.w3.org/2000/svg" xmlns:xlink="http://www.w3.org/1999/xlink" width="1024" height="1024" viewBox="0 0 1024 1024">
<g id="icomoon-ignore">
</g>
<path d="M512-0.039c-282.782 0-512 229.218-512 512s229.218 512 512 512 512-229.218 512-512-229.218-512-512-512zM512 42.654c258.796 0 469.346 210.55 469.346 469.346 0 113.861-40.802 218.348-108.505 299.717-46.789-19.535-157.263-57.856-225.634-78.060-5.829-1.851-6.735-2.127-6.735-26.388 0-20.047 8.231-40.212 16.305-57.305 8.704-18.55 19.023-49.782 22.764-77.785 10.358-12.052 24.497-35.801 33.595-81.054 7.956-39.897 4.254-54.43-1.024-68.057-0.551-1.457-1.142-2.875-1.536-4.254-2.009-9.374 0.748-57.974 7.601-95.665 4.726-25.876-1.221-80.896-36.825-126.425-22.489-28.79-65.536-64.079-144.187-69.002l-43.126 0.039c-77.312 4.884-120.359 40.172-142.887 68.962-35.643 45.529-41.551 100.549-36.825 126.385 6.892 37.73 9.57 86.331 7.641 95.508-0.433 1.615-0.985 3.033-1.575 4.45-5.238 13.627-9.019 28.16-0.985 68.057 9.058 45.253 23.158 69.002 33.595 81.054 3.663 28.002 13.982 59.195 22.764 77.785 6.38 13.588 9.374 32.059 9.374 58.171 0 24.261-0.906 24.576-6.38 26.309-70.695 20.874-183.257 61.558-225.201 79.911-69.041-81.723-110.75-187.234-110.75-302.356-0.158-258.836 210.393-469.346 469.189-469.346zM184.32 847.557c48.049-19.614 143.833-53.799 206.769-72.35 36.588-11.54 36.588-42.338 36.588-67.111 0-20.519-1.418-50.767-13.43-76.367-8.271-17.526-17.684-47.577-19.732-71.089-0.473-5.514-3.033-10.594-7.207-14.218-6.026-5.278-18.353-24.655-26.151-63.764-6.223-30.956-3.584-37.691-1.024-44.268 1.103-2.796 2.127-5.553 2.954-8.665 5.12-18.747-0.591-80.266-6.774-114.373-2.718-14.848 0.709-56.99 28.475-92.475 24.891-31.823 62.543-49.546 110.592-52.618l40.448-0.039c49.349 3.111 87.001 20.834 111.931 52.657 27.766 35.486 31.114 77.627 28.396 92.514-6.183 34.107-11.934 95.626-6.774 114.334 0.866 3.111 1.89 5.868 2.954 8.665 2.56 6.538 5.159 13.312-0.985 44.268-7.838 39.070-20.165 58.447-26.191 63.764-4.135 3.623-6.695 8.704-7.207 14.218-2.048 23.513-11.461 53.563-19.692 71.089-9.452 20.086-20.322 46.868-20.322 75.5 0 24.734 0 55.572 36.943 67.19 60.219 17.802 156.475 50.846 207.281 70.853-84.874 84.047-201.492 136.034-330.043 136.034-127.488 0-243.121-51.082-327.798-133.75z"></path>
</svg>
