<?xml version="1.0" encoding="utf-8"?>
<!-- Generated by IcoMoon.io -->
<!DOCTYPE svg PUBLIC "-//W3C//DTD SVG 1.1//EN" "http://www.w3.org/Graphics/SVG/1.1/DTD/svg11.dtd">
<svg version="1.1" xmlns="http://www.w3.org/2000/svg" xmlns:xlink="http://www.w3.org/1999/xlink" width="1120" height="1024" viewBox="0 0 1120 1024">
<g id="icomoon-ignore">
</g>
<path d="M511.685 75.264c101.77 0 184.556 82.786 184.556 184.556 0 59.195-28.908 115.279-77.312 149.977l-12.012 8.586-13.666 6.774c-25.797 12.761-53.209 19.22-81.526 19.22-25.915 0-51.2-5.435-75.106-16.108l-14.060-6.302-12.209-8.034c-52.066-34.343-83.18-91.963-83.18-154.112-0.039-101.77 82.747-184.556 184.517-184.556zM803.407 579.623c101.77 0 184.556 82.786 184.556 184.556s-82.786 184.556-184.556 184.556c-94.917 0-175.616-74.043-183.729-168.606l-1.26-14.572 1.142-15.439c4.293-56.753 33.831-107.52 81.054-139.264l11.5-7.719 14.69-6.735c24.418-11.106 50.176-16.778 76.603-16.778zM219.963 579.623c28.908 0 56.832 6.695 82.983 19.889l13.312 6.735 12.209 8.901c43.796 31.98 71.247 81.172 75.303 134.971l1.182 15.439-1.26 14.572c-8.113 94.562-88.812 168.606-183.729 168.606-101.77 0-184.556-82.786-184.556-184.556s82.786-184.556 184.556-184.556zM511.685 39.542c-121.659 0-220.278 98.619-220.278 220.278 0 76.918 39.503 144.542 99.21 183.926l-71.601 123.904c-29.814-15.045-63.409-23.749-99.092-23.749-121.659 0-220.278 98.619-220.278 220.278s98.619 220.278 220.278 220.278c115.239 0 209.684-88.537 219.333-201.295h144.817c9.649 112.758 104.094 201.295 219.333 201.295 121.659 0 220.278-98.619 220.278-220.278s-98.619-220.278-220.278-220.278c-32.65 0-63.527 7.286-91.412 20.047l-72.271-125.125c55.769-39.975 92.239-105.157 92.239-179.003 0-121.659-98.619-220.278-220.278-220.278v0zM511.685 480.098c35.013 0 67.978-8.389 97.359-22.922l71.68 124.062c-54.508 36.628-91.53 96.965-96.768 166.242h-144.581c-5.002-66.245-39.227-124.18-89.876-161.122l72.468-125.44c27.451 12.209 57.738 19.18 89.718 19.18v0z"></path>
</svg>
