<?xml version="1.0" encoding="utf-8"?>
<!-- Generated by IcoMoon.io -->
<!DOCTYPE svg PUBLIC "-//W3C//DTD SVG 1.1//EN" "http://www.w3.org/Graphics/SVG/1.1/DTD/svg11.dtd">
<svg version="1.1" xmlns="http://www.w3.org/2000/svg" xmlns:xlink="http://www.w3.org/1999/xlink" width="1024" height="1024" viewBox="0 0 1024 1024">
<g id="icomoon-ignore">
</g>
<path d="M552.96 337.92c0 22.622-18.338 40.96-40.96 40.96s-40.96-18.338-40.96-40.96c0-22.622 18.338-40.96 40.96-40.96s40.96 18.338 40.96 40.96z"></path>
<path d="M539.307 457.387v-27.307h-54.613v286.72h54.613v-27.307z"></path>
<path d="M512 0c-283.307 0-512 228.693-512 512s228.693 512 512 512 512-228.693 512-512c0-283.307-228.693-512-512-512zM512 983.040c-259.413 0-471.040-211.627-471.040-471.040s211.627-471.040 471.040-471.040 471.040 211.627 471.040 471.040-211.627 471.040-471.040 471.040z"></path>
</svg>
