<?xml version="1.0" encoding="utf-8"?>
<!-- Generated by IcoMoon.io -->
<!DOCTYPE svg PUBLIC "-//W3C//DTD SVG 1.1//EN" "http://www.w3.org/Graphics/SVG/1.1/DTD/svg11.dtd">
<svg version="1.1" xmlns="http://www.w3.org/2000/svg" xmlns:xlink="http://www.w3.org/1999/xlink" width="1024" height="1024" viewBox="0 0 1024 1024">
<g id="icomoon-ignore">
</g>
<path d="M1023.921 970.319l-295.306-295.345c59.353-71.365 95.114-163.052 95.114-263.129 0-227.486-184.399-411.884-411.884-411.884-227.446 0-411.845 184.399-411.845 411.884 0 227.446 184.399 411.884 411.845 411.884 100.076 0 191.764-35.722 263.129-95.114l295.306 295.345 53.642-53.642zM51.594 411.884c0-198.656 161.595-360.212 360.251-360.212s360.251 161.595 360.251 360.212-161.634 360.212-360.251 360.212c-198.656 0-360.251-161.595-360.251-360.212z"></path>
</svg>
