<?xml version="1.0" encoding="utf-8"?>
<!-- Generated by IcoMoon.io -->
<!DOCTYPE svg PUBLIC "-//W3C//DTD SVG 1.1//EN" "http://www.w3.org/Graphics/SVG/1.1/DTD/svg11.dtd">
<svg version="1.1" xmlns="http://www.w3.org/2000/svg" xmlns:xlink="http://www.w3.org/1999/xlink" width="1149" height="1024" viewBox="0 0 1149 1024">
<g id="icomoon-ignore">
</g>
<path d="M776.704 811.323h-388.254l-15.281-63.015h485.258l165.573-472.615h-769.221l-66.836-275.692h-187.943v55.138h144.581l188.849 763.234c-41.905 15.36-69.553 54.351-69.553 99.289 0 58.644 47.695 106.338 106.338 106.338s106.338-47.695 106.338-106.338c0-17.999-4.647-35.407-13.47-51.2h220.711c-8.862 15.754-13.47 33.201-13.47 51.2 0 58.644 47.695 106.338 106.299 106.338 58.644 0 106.378-47.695 106.378-106.338 0.039-58.604-47.655-106.299-106.299-106.338zM421.415 917.662c0 28.239-22.961 51.2-51.2 51.2s-51.2-22.961-51.2-51.2 22.961-51.2 51.2-51.2 51.2 22.961 51.2 51.2zM268.17 330.831h678.912l-128.158 362.299h-459.106l-91.648-362.299zM827.904 917.662c0 28.239-22.961 51.2-51.239 51.2-28.199 0-51.161-22.961-51.161-51.2s22.961-51.2 51.161-51.2c28.278 0 51.239 22.961 51.239 51.2z"></path>
</svg>
